<svg xmlns="http://www.w3.org/2000/svg" viewBox="0 0 420.51 57.99"><title>fthelines-logo</title><g id="b8cf0949-0d03-4dd0-a486-9f611f91b758" data-name="Layer 2"><g id="acba78b8-40f2-4aff-8dc6-9e631c06cbec" data-name="Layer 2"><g id="e183b923-71e7-4dc1-9599-56a7862027ff" data-name="fthelines-logo"><polygon points="66.63 48.15 3.35 52.62 0 5.16 73.02 0 61.53 10.6 72.92 15.91 58.91 25.46 79.07 33.82 54.99 39.19 66.63 48.15" fill="#e8d613"/><path d="M21.77,14.29,39.68,13,40,18.08l-12.15.86c.12,1.79.24,3.46.36,5.13.05.73.59.55,1,.52L37.64,24l1.16-.08.37,5.14-10.52.74c0,.49.06.86.08,1.23.17,2.34.32,4.68.51,7,.06.69-.11,1-.87,1.06-1.4.06-2.79.18-4.19.29-.47,0-.8,0-.84-.61l-1.68-24.3S21.69,14.43,21.77,14.29Z"/><polyline points="328.94 56.52 375.88 57.99 420.51 36.19 376.76 10.41 340.16 9.88" fill="#f2f1ed"/><polygon points="376.76 10.41 98.11 1.69 85.61 11.06 96.39 17.5 81.49 25.58 100.7 35.95 76.2 38.84 86.86 48.94 375.88 57.99 367.61 50.77 376.35 42.98 367.17 35.88 376.54 28.27 367.36 19.92 376.76 10.41" fill="#e8d613"/><path d="M267,43l.79-25.26c2.2.07,4.36.12,6.52.24.22,0,.5.42.59.7,1.37,4.26,2.7,8.53,4,12.8a1.86,1.86,0,0,0,.53.89,3.47,3.47,0,0,0,.08-.55c.08-4.27.17-8.53.21-12.8,0-.77.33-.94,1-.89a27.14,27.14,0,0,0,3.25.09c1,0,1.24.27,1.21,1.26-.26,6.64-.44,13.29-.65,19.94,0,1-.1,2-.09,3,0,.79-.2,1.14-1.08,1.08-1.67-.12-3.36-.16-5-.16a1.12,1.12,0,0,1-1.23-1c-1.25-4.07-2.54-8.13-3.83-12.2a3.82,3.82,0,0,0-.73-1.43c0,.61.08,1.23.07,1.85-.11,3.85-.26,7.7-.34,11.54,0,.8-.31,1-1.08,1C269.86,43.09,268.47,43.08,267,43Z"/><path d="M139.87,14.43l5.77.18-.31,9.75c1.85.06,3.57.14,5.3.13.15,0,.42-.57.43-.89.12-2.48.18-5,.26-7.45,0-.42,0-.83,0-1.41,1.89.06,3.7.09,5.5.22.15,0,.38.66.37,1-.08,3.47-.2,6.93-.31,10.39-.13,4.24-.28,8.47-.38,12.7,0,.86-.26,1.19-1.15,1.12a34.1,34.1,0,0,0-3.78-.12c-.86,0-1.06-.33-1-1.13.12-2.72.16-5.45.28-8.18,0-.82-.18-1.11-1-1.1-1.49,0-3-.08-4.63-.13l-.05,1.32c-.08,2.65-.19,5.31-.23,8,0,.78-.27,1.06-1.05,1-1.37-.09-2.73-.11-4.1-.13-.55,0-.82-.16-.8-.78q.41-12.08.78-24.15A2,2,0,0,1,139.87,14.43Z"/><path d="M344.42,28.41l-5.6-.17c-.06-.33-.14-.65-.18-1-.19-1.57-.66-2.24-2.19-2.51a11.17,11.17,0,0,0-3.11,0,2,2,0,0,0-.52,3.8c1.58.65,3.21,1.19,4.79,1.83a24.15,24.15,0,0,1,3.9,1.78,6.89,6.89,0,0,1-.36,11.94,13.17,13.17,0,0,1-12.52,0c-3-1.49-4.18-4.17-3.88-7.59l5.53.17s.11.07.12.12c.22,3.27,2.1,3.85,6.06,3.51a3.63,3.63,0,0,0,1.38-.46,1.78,1.78,0,0,0,.17-3.16,35.94,35.94,0,0,0-4.31-1.87c-1.1-.45-2.24-.79-3.34-1.25-3.37-1.43-5-3.89-4.74-7.24.21-3.12,2.23-5.46,5.62-6.4a13.36,13.36,0,0,1,8.06.22C343,21.41,344.81,24.41,344.42,28.41Z" fill="#161303"/><path d="M302.65,33.79l-.16,5.09,11.86.37-.16,5.16-17.74-.55.78-25.1,17.77.56-.16,5c-.37,0-.74,0-1.11,0-3.29-.1-6.58-.18-9.87-.32-.71,0-1,.15-1,.91,0,1.21-.06,2.43-.1,3.75L313,29l-.16,5.11Z"/><path d="M187,15.93l-.16,5L175,20.58c0,1.51-.12,2.93-.09,4.34,0,.15.58.39.9.41,2.73.11,5.46.19,8.19.27l1.11,0-.16,5.09-10.19-.32-.16,5.08,11.83.38L186.22,41c-.32,0-.66.05-1,0l-15.85-.48c-.64,0-1-.08-1-.92.29-8,.52-15.95.78-23.93,0-.1,0-.2.05-.38Z"/><path d="M243.4,37.05c0-.41.09-.68.1-.95.14-4.31.25-8.61.43-12.91,0-.85-.23-1.09-1.05-1.09-1.56,0-3.13-.08-4.81-.13.05-1.63.07-3.12.18-4.61,0-.19.53-.47.81-.47,1.57,0,3.15.07,4.72.12l10.81.34,1.21,0-.16,5.13c-1.51-.05-3-.05-4.49-.16-1-.08-1.35.17-1.37,1.22-.07,4.2-.22,8.4-.38,12.6,0,.8.17,1.13,1,1.11,1.32,0,2.65.09,4,.1.64,0,.87.22.83.87-.07,1.18-.11,2.37-.11,3.56,0,.65-.28.84-.9.82q-8-.27-15.95-.5c-.63,0-.87-.24-.83-.88.07-1.19.1-2.38.11-3.57,0-.66.3-.83.91-.8C240.08,37,241.68,37,243.4,37.05Z"/><path d="M129.83,19.19c-2.39-.08-4.59-.11-6.79-.23-.92-.06-1.2.23-1.23,1.15-.14,5.85-.34,11.69-.53,17.53l0,1.34-5.91-.18,0-1.23c.19-5.88.34-11.75.58-17.63,0-1-.28-1.24-1.21-1.24-1.93,0-3.85-.13-5.78-.15-.69,0-1-.19-.95-1,.09-1.12.11-2.24.11-3.36,0-.62.2-.86.86-.84,6.72.23,13.43.43,20.15.67.29,0,.8.38.8.6C130,16.12,129.88,17.58,129.83,19.19Z"/><path d="M214.16,36.14l12.21.39-.16,5.15c-.34,0-.64,0-.94,0-5.39-.16-10.78-.34-16.17-.49-.64,0-1-.08-1-.91.28-7.94.52-15.89.77-23.83a5.1,5.1,0,0,1,.07-.56c1.79.06,3.56.1,5.32.19.17,0,.42.32.47.53a3.28,3.28,0,0,1,0,.94L214.2,34.8Z"/><polygon points="410.61 30.36 410.27 41.19 420.51 36.19 410.61 30.36" fill="#161303" stroke="#161303" stroke-miterlimit="10" stroke-width="2"/></g></g></g></svg>